<svg width="24" height="24" viewBox="0 0 24 24" fill="none" xmlns="http://www.w3.org/2000/svg">
  <path d="M12 0C5.37 0 0 5.37 0 12C0 17.3 3.44 21.8 8.21 23.39C8.81 23.5 9.03 23.13 9.03 22.82C9.03 22.54 9.02 21.8 9.01 20.9C5.67 21.59 4.97 19.38 4.97 19.38C4.42 17.99 3.63 17.63 3.63 17.63C2.54 16.92 3.72 16.94 3.72 16.94C4.92 17.03 5.56 18.18 5.56 18.18C6.63 19.98 8.38 19.45 9.07 19.13C9.18 18.36 9.49 17.83 9.84 17.54C7.17 17.25 4.37 16.21 4.37 11.6C4.37 10.29 4.84 9.22 5.61 8.38C5.49 8.09 5.08 6.91 5.72 5.3C5.72 5.3 6.74 4.98 9.02 6.54C9.99 6.28 11.03 6.15 12.07 6.15C13.11 6.15 14.15 6.28 15.12 6.54C17.4 4.98 18.42 5.3 18.42 5.3C19.06 6.91 18.65 8.09 18.53 8.38C19.3 9.22 19.77 10.29 19.77 11.6C19.77 16.22 16.96 17.24 14.29 17.53C14.74 17.9 15.13 18.62 15.13 19.72C15.13 21.29 15.12 22.49 15.12 22.82C15.12 23.13 15.34 23.51 15.95 23.39C20.72 21.8 24.16 17.3 24.16 12C24.16 5.37 18.79 0 12 0Z" fill="#DDD"/>
</svg>